<?xml version="1.0" encoding="utf-8"?>
<!-- Generator: Adobe Illustrator 26.0.1, SVG Export Plug-In . SVG Version: 6.00 Build 0)  -->
<svg version="1.1" id="Camada_1" xmlns="http://www.w3.org/2000/svg" xmlns:xlink="http://www.w3.org/1999/xlink" x="0px" y="0px"
	 viewBox="0 0 546.2 174.8" style="enable-background:new 0 0 546.2 174.8;" xml:space="preserve" width="93.74" height="30">
<style type="text/css">
	.st0{fill:#87BD40;}
	.st1{fill:#548039;}
	.st2{fill:#FAFBF7;}
	.st3{fill:#FAFCF8;}
	.st4{fill:#F6F8F5;}
</style>
<path class="st0" d="M87.2,175h372c48,0,87-39,87-87v0c0-48-39-87-87-87h-372V175z"/>
<path class="st1" d="M175.1,87.8c-0.1,47.8-40,87.4-88,87C35.6,174.4-0.8,131.3,0,86C0.9,38.1,39.4-0.1,88.1,0
	C136.2,0.1,175.2,39.4,175.1,87.8z"/>
<path class="st2" d="M289,96.5c2.3-10,4.2-18.9,6.2-27.7c1.4-6.3,6.4-8.9,12.6-6.8c1.7,0.6,1.3,1.6,1,2.7
	c-3.9,14.3-7.8,28.5-11.7,42.8c-0.5,1.9-1.7,2.1-3.4,2.2c-11.2,1-11.3,1-13.6-9.9c-1.8-8.7-3.6-17.4-6.4-26.2
	c-0.8,4.1-1.6,8.3-2.5,12.4c-1.4,6.7-3,13.3-4.3,20c-0.6,2.8-1.8,3.7-4.7,3.7c-10.1,0.1-10.1,0.2-12.8-9.6
	c-3.1-11.4-6-22.8-9.3-34.2c-1-3.5-0.1-4.2,3.3-4.2c8.7,0,8.7-0.1,10.6,8.2c1.9,8.4,3.6,16.9,5.6,26.2c2.3-10.3,4.6-19.7,6.4-29.3
	c0.8-4.1,2.5-5.3,6.6-5.1c9,0.3,9,0.1,10.9,8.9C285.3,78.8,287,86.9,289,96.5z"/>
<path class="st3" d="M404.3,106c-5.2-6.1-5.3-7.7-0.1-13.4c1.4-1.5,0.9-2-0.3-3c-6.4-5.4-7.1-12.3-4.1-19.5
	c2.9-7.2,9.4-9.3,16.4-8.9c6.8,0.3,13.6,1,20.4,0.8c1.6,0,3.6-0.3,3.5,2.3c-0.1,2.2,1,5-2.5,5.6c-3.6,0.6-3.7,2.5-3.2,5.6
	c1.6,9.8-4.3,17-14.5,18.2c-1.8,0.2-3.7,0.2-5.5,0.1c-1.8-0.1-3,0.6-3.3,2.3c-0.4,2.2,1.1,3,2.9,3.2c2.1,0.3,4.3,0.3,6.5,0.4
	c1.7,0.1,3.3,0,5,0c7.4,0.2,11.8,2.9,13.4,8.2c2.1,6.9-0.1,14.5-6.2,18c-9.8,5.7-20.3,6.1-30.8,2.2c-4.6-1.7-7-5.4-7.2-10.4
	c-0.2-5.1,2.3-8.5,6.8-10.6C402.4,106.9,403.1,106.5,404.3,106z M414.5,122c4.4-0.3,8.1-0.4,11.1-2.7c3.4-2.5,3.4-6.9-0.1-7.9
	c-5.3-1.6-10.8-1.7-16.1,0c-2.2,0.7-3.4,2.6-3.3,5c0.1,2.5,1.5,4,3.8,4.7C411.6,121.6,413.5,121.8,414.5,122z M410.8,77.5
	c0.2,3.3,0.3,6.7,4.4,7.9c2.3,0.6,4.5,0.1,5.7-2c2.2-3.9,2.1-8,0-11.9c-1.1-2.1-3.4-2.7-5.6-2.1C411.1,70.6,411,74,410.8,77.5z"/>
<path class="st3" d="M357.9,105.9c-5.3-5.9-5.3-7.8-0.1-13.3c1.3-1.4,1.2-1.9-0.2-3c-6.5-5.4-7.1-12.3-4.2-19.5
	c2.9-7.2,9.3-9.3,16.4-9c6.8,0.4,13.6,1,20.4,0.8c1.6,0,3.6-0.3,3.5,2.2c0,2.2,1,5-2.5,5.6c-3.4,0.6-3.8,2.1-3.3,5.4
	c1.7,10.9-5.2,18.1-16.8,18.6c-2.4,0.1-6.3-1.5-6.3,2.6c0,3.9,4.1,3,6.7,3.2c2.6,0.2,5.3,0,8,0.1c5.7,0.2,10.7,1.8,12.7,7.7
	c2,6.1,1.2,11.9-3.6,16.6c-7.1,7.1-27.1,8.7-35.3,2.9c-7.2-5-6.7-15.1,1-19.4C355.4,107.1,356.4,106.7,357.9,105.9z M371.1,110.2
	c-2.7,0.1-5.3,0-7.8,1c-2.1,0.9-3.5,2.5-3.5,4.9c0,2,0.9,3.4,2.6,4.5c3.8,2.2,13.7,1.4,17.1-1.5c1.6-1.4,2.6-3,2.1-5.2
	c-0.5-2.1-2.1-2.8-4-3.1C375.4,110.6,373.3,110.4,371.1,110.2z M376,77.3c-0.1-5.3-2.3-8.3-6.1-8.1c-3.6,0.2-5.7,3.4-5.6,8.6
	c0.1,4.9,2.3,7.8,5.9,7.8C374,85.7,376.1,82.6,376,77.3z"/>
<path class="st3" d="M335.7,103.2c-4.2,5.4-9.2,7.5-15.3,7.1c-6.6-0.4-11-3.9-12.3-10.3c-1.8-8.2,0.7-14.5,6.9-17.4
	c4.6-2.2,9.6-2.4,14.6-2.7c1.8-0.1,4.7,1.2,4.8-2.5c0.1-3.3-0.7-6-4.5-6.6c-3.6-0.5-7,0-10.2,1.5c-5.4,2.7-5-2.6-6.5-4.8
	c-2.2-3.2,1.2-3.5,2.9-4.2c6.5-2.5,13.2-3.3,20-1.6c6.8,1.7,10.8,6,11.1,13c0.4,10.6,0.2,21.3,0.2,31.9c0,1.3,0,3-1.9,2.8
	c-2.6-0.3-5.8,1.6-7.7-1.6C337.1,106.8,336.6,105.3,335.7,103.2z M330.8,87.7c-6.7,0.2-9.9,2.8-9.8,7.8c0,3.7,2,5.5,5.6,5.4
	c4.9-0.1,7.9-4.2,8-10C334.6,87.5,332.8,87.5,330.8,87.7z"/>
<path class="st3" d="M477.7,97.7c1.5,9.5,0.4,11-8.6,12.3c-3.8,0.5-7.6,0.6-11.5,0.1c-9.6-1.2-16.3-7.2-18.2-16.6
	c-1.1-5.4-1.1-10.9,0.3-16.3c3.2-12.2,13.5-18.3,26.1-15.5c10.8,2.4,17.4,13.5,15.2,25.1c-0.5,2.5-2,2.2-3.6,2.2
	c-7.2,0-14.3,0.2-21.5-0.1c-4.2-0.2-4.3,1.7-3.2,4.8c1.8,4.9,5.8,7.3,11.9,7C469.2,100.5,473.4,98.9,477.7,97.7z M460.5,80.3
	c0.8,0,1.7,0.1,2.5,0c1.8-0.3,4.6,1.2,5.3-1.1c0.8-2.8-0.8-5.5-3.2-7.3c-3.3-2.5-8.1-1.8-10.7,1.5c-1.3,1.7-2.6,3.9-1.8,6
	c0.8,2,3.2,0.7,4.9,1C458.5,80.4,459.5,80.3,460.5,80.3z"/>
<path class="st2" d="M217.3,110.5c-2.3-0.3-5.2-0.3-7.9-1c-2.3-0.6-5.5-0.2-5.8-4.1c-0.7-7.6-0.4-7.9,7-5.8c3.2,0.9,6.5,1.8,9.8,1.2
	c2-0.3,4-1,4.5-3.3c0.6-2.4-1-3.8-2.8-4.7c-3.5-1.9-7.2-3.5-10.6-5.5c-6.3-3.5-8.7-8.2-7.8-14.8c0.8-5.7,4.6-9.3,11.5-10.8
	c6.7-1.4,13.2-0.4,19.6,2c2.9,1.1,2.6,2.9,1.2,4.5c-1.4,1.8,0,6.7-4.9,4.8c-3.3-1.2-6.5-2.5-10.1-2.3c-2,0.1-3.7,0.6-4.2,2.8
	c-0.4,1.9,0.7,3.2,2.3,4c3.1,1.6,6.3,3.1,9.4,4.6c7.7,3.9,10.6,8.6,9.4,15.7c-1.1,6.8-6,11-14,12
	C221.8,110.3,219.8,110.3,217.3,110.5z"/>
<path class="st4" d="M497.6,68.9c3.6-4.8,7.4-8.1,13.2-7.9c2.7,0.1,4.1,0.8,3.8,3.7c-0.1,1.7-0.2,3.3,0,5c0.3,2.8-0.7,3.6-3.7,3.6
	c-8.7,0-12.1,3.4-12.2,12.1c-0.1,6.5-0.2,13,0,19.5c0.1,3.5-0.7,5.1-4.6,4.9c-10.2-0.4-8.5,1.1-8.6-8.4c-0.1-11.5-0.1-23,0-34.4
	c0-2-1.3-5.3,2.7-5c3,0.2,7.4-2.1,8.2,3.6C496.5,66.4,497,67.2,497.6,68.9z"/>
<path class="st4" d="M128.8,87.3c-6.7-4.5-8-10.7-8.4-17.4c-0.2-3.2-0.1-6.3-0.1-9.5c0-4.8-1.1-8.6-7.2-8.4
	c-4.1,0.1-2.1-3.3-2.4-5.2c-0.4-2,0.1-3.3,2.8-3.5c9.7-0.7,15,3.2,16.1,12.8c0.6,5.1,0.3,10.3,0.7,15.4c0.4,5.2,1.3,10.1,8.1,10.6
	c3,0.2,1.8,2.9,1.7,4.3c-0.2,2,1.8,5.2-1.7,5.8c-6.5,1-7.6,5.5-8.1,10.8c-0.5,5.8,0.2,11.7-0.9,17.4c-1.6,7.9-9.3,12.7-17,10.6
	c-2.8-0.8-1.6-2.9-1.7-4.5c-0.1-1.6-0.9-3.6,2-4.2c7.3-1.6,7.5-2,7.6-9.4c0.1-3.5,0-7,0.3-10.5C121.1,96.5,122.8,91.1,128.8,87.3z"
	/>
<path class="st4" d="M59.6,131.1c-9.3-0.2-13.5-4-14.3-13.4c-0.5-5.6-0.4-11.3-0.9-16.9c-0.3-4.3-2.2-7.6-7.1-8.3
	c-4.5-0.7-1.8-4.2-2.3-6.4c-0.4-1.8-0.7-3.9,2.6-4.2c4.4-0.3,6-3.5,6.8-7.5c1-5.6,0.4-11.3,0.8-16.9C46,47.3,51,42.9,61.2,43.3
	c2.8,0.1,3.6,1.2,3.2,3.6c-0.4,2,1.6,5.5-2.9,5.2c-4.9-0.3-6.3,2.7-6.4,6.9c-0.1,4.3-0.2,8.6-0.5,13c-0.3,5.3-1.8,10.2-6.1,13.7
	c-1.2,1-1.9,1.7-0.2,3c5.6,4.3,6.3,10.7,6.7,17.1c0.2,3.8,0.3,7.6,0.4,11.5c0.1,3.1,1.8,5.3,5,5c5.4-0.4,4.2,3.2,4.3,6.2
	C64.5,132.7,61.2,130.5,59.6,131.1z"/>
<path class="st4" d="M114.6,87.4c-0.4,3.6-2.3,5.8-6.1,5.6c-3.5-0.1-5.4-2.3-5.5-5.8c0-3.5,2.1-5.6,5.5-5.7
	C112.2,81.4,114.3,83.6,114.6,87.4z"/>
<path class="st4" d="M66.3,93.1c-3.7-0.4-5.9-2.4-5.9-5.8c0-3.7,2.3-5.9,6-5.8c3.4,0.1,5.6,2.3,5.6,5.7C72,90.9,69.7,92.8,66.3,93.1
	z"/>
<path class="st4" d="M87.8,81.4c3.5,0.6,5.7,2.5,5.5,6.3c-0.3,3.5-2.5,5.4-5.9,5.3c-3.8-0.2-5.8-2.6-5.6-6.2
	C81.9,83.4,84.3,81.6,87.8,81.4z"/>
</svg>
